<?xml version="1.0" encoding="UTF-8"?>
<svg xmlns="http://www.w3.org/2000/svg" xmlns:xlink="http://www.w3.org/1999/xlink" width="1000pt" height="563pt" viewBox="0 0 1000 563" version="1.1">
<g id="surface6">
<path style=" stroke:none;fill-rule:nonzero;fill:rgb(0%,61.176471%,58.823529%);fill-opacity:1;" d="M 27.507812 483.058594 L 208.085938 100.554688 L 43.359375 100.554688 L 43.359375 10.277344 L 313.386719 10.277344 L 313.386719 87.109375 L 151.824219 451.375 L 151.824219 453.757812 L 312.617188 453.757812 L 312.617188 544.042969 L 27.507812 544.042969 Z M 27.507812 483.058594 "/>
<path style=" stroke:none;fill-rule:nonzero;fill:rgb(0%,41.960784%,36.078431%);fill-opacity:1;" d="M 285.8125 163.15625 L 166.761719 448.148438 L 190.984375 448.148438 Z M 285.8125 163.15625 "/>
<path style=" stroke:none;fill-rule:nonzero;fill:rgb(0%,41.960784%,36.078431%);fill-opacity:1;" d="M 337.363281 459.367188 L 318.21875 460.199219 L 325.574219 549.65625 L 55.953125 549.65625 L 56.488281 562.058594 L 341.339844 549.554688 Z M 337.363281 459.367188 "/>
<path style=" stroke:none;fill-rule:nonzero;fill:rgb(0%,41.960784%,36.078431%);fill-opacity:1;" d="M 175.628906 426.933594 L 166.761719 448.148438 L 287 448.148438 L 287.1875 437.371094 Z M 175.628906 426.933594 "/>
<path style=" stroke:none;fill-rule:nonzero;fill:rgb(0%,41.960784%,36.078431%);fill-opacity:1;" d="M 1.585938 461.527344 L 0.5 522.5 L 15.507812 522.886719 L 15.507812 481.796875 L 16.046875 480.675781 L 172.535156 162.734375 Z M 1.585938 461.527344 "/>
<path style=" stroke:none;fill-rule:nonzero;fill:rgb(0%,41.960784%,36.078431%);fill-opacity:1;" d="M 440.386719 10.601562 L 507.140625 10.601562 L 501.597656 363.066406 C 501.597656 369.289062 501.746094 375.683594 502.144531 382.078125 C 502.425781 374.398438 503.0625 366.105469 504.132812 357.113281 L 533.746094 8.835938 L 441.554688 0.5 Z M 440.386719 10.601562 "/>
<path style=" stroke:none;fill-rule:nonzero;fill:rgb(0%,41.960784%,36.078431%);fill-opacity:1;" d="M 712.902344 32.378906 L 707.5 344.859375 C 707.5 368.027344 706.023438 389.367188 703.09375 408.921875 C 706.273438 394.613281 708.816406 379.339844 710.746094 363.042969 L 749.089844 36.628906 Z M 712.902344 32.378906 "/>
<path style=" stroke:none;fill-rule:nonzero;fill:rgb(0%,41.960784%,36.078431%);fill-opacity:1;" d="M 663.277344 2.417969 L 560.019531 12.414062 L 592.550781 348.753906 L 585.484375 10.601562 L 664.070312 10.601562 Z M 663.277344 2.417969 "/>
<path style=" stroke:none;fill-rule:nonzero;fill:rgb(0%,41.960784%,36.078431%);fill-opacity:1;" d="M 378.765625 29.949219 L 355.09375 32.226562 L 386.789062 360.136719 C 386.8125 360.363281 386.84375 360.578125 386.871094 360.816406 C 386.730469 355.867188 386.648438 350.824219 386.648438 345.65625 Z M 378.765625 29.949219 "/>
<path style=" stroke:none;fill-rule:nonzero;fill:rgb(0%,61.176471%,58.823529%);fill-opacity:1;" d="M 496 16.210938 L 496 363.066406 C 496 441.492188 519.730469 465.253906 546.644531 465.253906 C 576.761719 465.253906 598.160156 443.855469 598.160156 363.066406 L 598.160156 16.210938 L 701.890625 16.210938 L 701.890625 344.859375 C 701.890625 481.875 650.421875 556.320312 547.460938 556.320312 C 435.816406 556.320312 392.257812 479.492188 392.257812 345.65625 L 392.257812 16.210938 Z M 496 16.210938 "/>
<path style=" stroke:none;fill-rule:nonzero;fill:rgb(56.862745%,74.901961%,20%);fill-opacity:1;" d="M 996.039062 16.324219 L 996.039062 81.871094 C 996.039062 110.960938 980.75 128.699219 950.679688 128.699219 C 927.273438 128.699219 911.511719 119.335938 907.320312 99.371094 L 906.820312 99.371094 C 903.617188 123.527344 890.316406 127.222656 853.101562 127.710938 C 834.625 127.960938 825.007812 128.941406 821.554688 135.59375 L 820.078125 135.59375 L 820.078125 97.15625 C 825.007812 93.703125 831.660156 92.957031 838.566406 92.71875 L 872.332031 91.738281 C 886.128906 91.246094 894.507812 85.078125 894.507812 70.792969 L 894.507812 51.808594 L 820.078125 51.808594 L 820.078125 16.324219 Z M 919.144531 51.808594 L 919.144531 66.59375 C 919.144531 83.601562 926.546875 93.214844 945.511719 93.214844 C 961.777344 93.214844 969.90625 84.589844 969.90625 68.566406 L 969.90625 51.808594 Z M 919.144531 51.808594 "/>
<path style=" stroke:none;fill-rule:nonzero;fill:rgb(56.862745%,74.901961%,20%);fill-opacity:1;" d="M 996.039062 175.320312 L 996.039062 219.1875 L 820.078125 265.757812 L 820.078125 228.796875 L 857.292969 220.664062 L 857.292969 173.839844 L 820.078125 165.703125 L 820.078125 128.738281 Z M 886.378906 180 L 886.378906 214.5 L 965.476562 197.496094 L 965.476562 197.003906 Z M 886.378906 180 "/>
<path style=" stroke:none;fill-rule:nonzero;fill:rgb(56.862745%,74.901961%,20%);fill-opacity:1;" d="M 996.039062 267.527344 L 996.039062 325.6875 C 996.039062 374.964844 962.273438 383.847656 910.523438 383.847656 C 848.164062 383.847656 820.078125 370.535156 820.078125 323.464844 L 820.078125 267.527344 Z M 846.199219 303.011719 L 846.199219 318.785156 C 846.199219 343.441406 861.734375 348.34375 909.546875 348.34375 C 949.453125 348.34375 969.90625 345.15625 969.90625 318.046875 L 969.90625 303.011719 Z M 846.199219 303.011719 "/>
<path style=" stroke:none;fill-rule:nonzero;fill:rgb(56.862745%,74.901961%,20%);fill-opacity:1;" d="M 820.078125 396.703125 L 996.039062 396.703125 L 996.039062 432.179688 L 820.078125 432.179688 Z M 820.078125 396.703125 "/>
<path style=" stroke:none;fill-rule:nonzero;fill:rgb(56.862745%,74.901961%,20%);fill-opacity:1;" d="M 999.5 502.445312 C 999.5 555.675781 961.535156 562.328125 908.046875 562.328125 C 854.566406 562.328125 816.628906 555.675781 816.628906 502.445312 C 816.628906 449.203125 854.566406 442.558594 908.046875 442.558594 C 961.535156 442.558594 999.5 449.203125 999.5 502.445312 Z M 842.757812 502.445312 C 842.757812 523.386719 860.746094 526.851562 908.046875 526.851562 C 955.132812 526.851562 973.371094 523.386719 973.371094 502.445312 C 973.371094 481.492188 955.132812 478.042969 908.046875 478.042969 C 860.746094 478.042969 842.757812 481.492188 842.757812 502.445312 "/>
</g>
</svg>
